name analog
datacolumns 19
datarows 37
range 0.153 0.171
endheader
time	ground_force_vx	ground_force_vy	ground_force_vz	ground_force_px	ground_force_py	ground_force_pz	l_ground_force_vx	l_ground_force_vy	l_ground_force_vz	l_ground_force_px	l_ground_force_py	l_ground_force_pz	ground_torque_x	ground_torque_y	ground_torque_z	l_ground_torque_x	l_ground_torque_y	l_ground_torque_z
0.153	-0.0	-0.0	-0.0	-1.2421112060546875	5.574065208435059	-326.0121459960937	3.671748638153076	-7.378096103668213	-292.4784240722656	-0.0	-0.0	-0.0	-0.0	-0.0	-0.0	82979.6484375	-10739.9228515625	-3244.215087890625
0.1535	-0.0	-0.0	-0.0	-1.0020405054092407	5.450758934020996	-327.0173034667969	3.855633497238159	-7.412479400634766	-292.80242919921875	-0.0	-0.0	-0.0	-0.0	-0.0	-0.0	83271.59375	-10840.55859375	-3193.518310546875
0.154	-0.0	-0.0	-0.0	-1.4824943542480469	5.533092498779297	-329.29864501953125	3.7735464572906494	-7.214834690093994	-292.829345703125	-0.0	-0.0	-0.0	-0.0	-0.0	-0.0	82869.5546875	-10792.2021484375	-3127.5888671875
0.1545	-0.0	-0.0	-0.0	-1.3186110258102417	5.622368335723877	-328.3799743652344	3.7463161945343018	-7.323908805847168	-292.8039245605469	-0.0	-0.0	-0.0	-0.0	-0.0	-0.0	82977.2421875	-10735.400390625	-3280.49365234375
0.155	-0.0	-0.0	-0.0	-1.6684796810150146	5.451409816741943	-331.3400573730469	3.548431396484375	-7.3238348960876465	-292.0246276855469	-0.0	-0.0	-0.0	-0.0	-0.0	-0.0	82824.203125	-10773.29296875	-3203.052978515625
0.1555	-0.0	-0.0	-0.0	-1.126201033592224	5.340450763702393	-331.0331726074219	3.3090546131134038	-7.1947126388549805	-291.19244384765625	-0.0	-0.0	-0.0	-0.0	-0.0	-0.0	82791.046875	-10706.216796875	-3308.191650390625
0.156	-0.0	-0.0	-0.0	-1.784210205078125	5.566910743713379	-334.6231994628906	3.5005035400390625	-7.146943092346191	-290.815185546875	-0.0	-0.0	-0.0	-0.0	-0.0	-0.0	82397.28125	-10547.91796875	-3241.565185546875
0.1565	-0.0	-0.0	-0.0	-1.7025574445724487	5.080432891845703	-335.4910583496094	3.493250846862793	-7.01798152923584	-291.22088623046875	-0.0	-0.0	-0.0	-0.0	-0.0	-0.0	82467.1875	-10637.7939453125	-3287.18017578125
0.157	-0.0	-0.0	-0.0	-1.8480738401412964	5.841889381408691	-336.06597900390625	3.814563751220703	-7.330699920654297	-290.6542358398437	-0.0	-0.0	-0.0	-0.0	-0.0	-0.0	82027.6484375	-10530.451171875	-3326.44482421875
0.1575	-0.0	-0.0	-0.0	-2.5308327674865723	5.421412944793701	-337.386474609375	3.5558669567108154	-7.234975337982178	-288.3699951171875	-0.0	-0.0	-0.0	-0.0	-0.0	-0.0	82106.09375	-10562.18359375	-3278.42822265625
0.158	-0.0	-0.0	-0.0	-2.7655258178710938	5.541837692260742	-337.6712646484375	3.895733833312988	-7.249885559082031	-289.9259033203125	-0.0	-0.0	-0.0	-0.0	-0.0	-0.0	81923.3828125	-10710.4365234375	-3251.0654296875
0.1585	-0.0	-0.0	-0.0	-3.5198006629943848	6.24714994430542	-338.6024475097656	3.5002331733703613	-7.002444744110107	-288.39923095703125	-0.0	-0.0	-0.0	-0.0	-0.0	-0.0	81846.4453125	-10436.8876953125	-3200.435546875
0.159	-0.0	-0.0	-0.0	-3.4062423706054688	5.906895160675049	-338.9884338378906	3.6543397903442383	-6.873641014099121	-288.8771667480469	-0.0	-0.0	-0.0	-0.0	-0.0	-0.0	81984.6875	-10385.337890625	-3251.251220703125
0.1595	-0.0	-0.0	-0.0	-3.925262451171875	5.809195041656494	-337.99322509765625	3.330606460571289	-7.01763916015625	-288.90740966796875	-0.0	-0.0	-0.0	-0.0	-0.0	-0.0	81602.4453125	-10203.0830078125	-3248.947509765625
0.16	-0.0	-0.0	-0.0	-3.714768409729004	6.16669225692749	-339.0858459472656	3.580772876739502	-6.89706563949585	-289.1605834960937	-0.0	-0.0	-0.0	-0.0	-0.0	-0.0	81866.0703125	-10088.4599609375	-3329.6123046875
0.1605	-0.0	-0.0	-0.0	-3.8360519409179688	6.319838523864746	-338.8261108398437	3.250065803527832	-7.0576887130737305	-287.5104675292969	-0.0	-0.0	-0.0	-0.0	-0.0	-0.0	81807.859375	-10075.4775390625	-3335.33447265625
0.161	-0.0	-0.0	-0.0	-3.867797613143921	6.635932445526123	-340.1462097167969	3.193588256835937	-6.889091491699219	-287.9853515625	-0.0	-0.0	-0.0	-0.0	-0.0	-0.0	81925.0078125	-10194.87109375	-3338.05859375
0.1615	-0.0	-0.0	-0.0	-4.054755687713623	6.693417549133301	-340.4312438964844	3.0161666870117188	-6.735954761505127	-288.8739929199219	-0.0	-0.0	-0.0	-0.0	-0.0	-0.0	81940.96875	-9897.2939453125	-3518.487548828125
0.162	-0.0	-0.0	-0.0	-3.991748809814453	6.952171325683594	-340.1816101074219	2.944264888763428	-6.857481956481934	-287.9913024902344	-0.0	-0.0	-0.0	-0.0	-0.0	-0.0	81682.953125	-10002.3564453125	-3572.75927734375
0.1625	-0.0	-0.0	-0.0	-3.867310047149658	6.756130218505859	-342.3370361328125	2.8788259029388428	-6.840674877166748	-288.7484130859375	-0.0	-0.0	-0.0	-0.0	-0.0	-0.0	81933.8515625	-9915.7216796875	-3521.13427734375
0.163	-0.0	-0.0	-0.0	-3.858231067657471	7.023376941680908	-341.5250244140625	2.0717716217041016	-7.06573486328125	-288.11798095703125	-0.0	-0.0	-0.0	-0.0	-0.0	-0.0	81856.3046875	-10103.087890625	-3600.177734375
0.1635	-0.0	-0.0	-0.0	-3.6885619163513184	6.98307466506958	-342.0367431640625	2.155357360839844	-6.937616348266602	-288.1039123535156	-0.0	-0.0	-0.0	-0.0	-0.0	-0.0	81987.671875	-9920.6396484375	-3668.13525390625
0.164	-0.0	-0.0	-0.0	-3.439215660095215	7.37629222869873	-341.6103210449219	1.7653443813323977	-6.897923946380615	-289.2023010253906	-0.0	-0.0	-0.0	-0.0	-0.0	-0.0	81890.53125	-9790.919921875	-3678.837646484375
0.1645	-0.0	-0.0	-0.0	-3.368630170822144	7.49623966217041	-342.937744140625	1.67656147480011	-6.562517166137695	-288.2070617675781	-0.0	-0.0	-0.0	-0.0	-0.0	-0.0	81643.578125	-10150.861328125	-3675.824951171875
0.165	-0.0	-0.0	-0.0	-3.7468414306640634	7.280397891998291	-341.9529113769531	1.8322035074234009	-7.0747833251953125	-287.5800170898437	-0.0	-0.0	-0.0	-0.0	-0.0	-0.0	82001.640625	-9741.02734375	-3856.819091796875
0.1655	-0.0	-0.0	-0.0	-3.9651107788085938	7.604600429534912	-343.4415588378906	1.281725525856018	-6.70332670211792	-287.0387268066406	-0.0	-0.0	-0.0	-0.0	-0.0	-0.0	82003.5546875	-9609.0771484375	-3840.75244140625
0.166	-0.0	-0.0	-0.0	-4.024092674255371	7.359379768371582	-342.7801818847656	1.440561294555664	-6.721673965454102	-288.47216796875	-0.0	-0.0	-0.0	-0.0	-0.0	-0.0	81807.5	-9696.4072265625	-4011.525146484375
0.1665	-0.0	-0.0	-0.0	-4.648711681365967	7.120014667510986	-342.7418212890625	1.221124291419983	-6.858985900878906	-287.4707946777344	-0.0	-0.0	-0.0	-0.0	-0.0	-0.0	81696.3046875	-9379.875	-3943.043701171875
0.167	-0.0	-0.0	-0.0	-5.035473823547363	7.397823333740234	-344.2725524902344	0.8474952578544617	-7.045184135437012	-287.8568420410156	-0.0	-0.0	-0.0	-0.0	-0.0	-0.0	81597.34375	-9575.02734375	-4009.004150390625
0.1675	-0.0	-0.0	-0.0	-4.55939245223999	7.437400341033935	-346.1558837890625	0.788766622543335	-6.673081398010254	-287.5832214355469	-0.0	-0.0	-0.0	-0.0	-0.0	-0.0	81642.5859375	-9662.5869140625	-4019.0009765625
0.168	-0.0	-0.0	-0.0	-4.728157043457031	7.576084136962891	-346.1163330078125	0.9467113614082336	-6.526144981384277	-287.00262451171875	-0.0	-0.0	-0.0	-0.0	-0.0	-0.0	81773.3046875	-9473.1689453125	-4071.446533203125
0.1685	-0.0	-0.0	-0.0	-4.4503607749938965	7.744189739227295	-345.9598693847656	1.0743378400802612	-6.712448120117188	-287.545654296875	-0.0	-0.0	-0.0	-0.0	-0.0	-0.0	81571.421875	-9653.3544921875	-4018.7783203125
0.169	-0.0	-0.0	-0.0	-4.2821044921875	7.279579162597656	-346.0346984863281	1.2912830114364624	-6.359161376953125	-286.769287109375	-0.0	-0.0	-0.0	-0.0	-0.0	-0.0	81580.53125	-9674.0947265625	-3916.35009765625
0.1695	-0.0	-0.0	-0.0	-4.053885459899902	7.377070903778076	-344.7858581542969	1.4587138891220093	-6.663295269012451	-286.1100158691406	-0.0	-0.0	-0.0	-0.0	-0.0	-0.0	81442.9453125	-9826.4921875	-3801.00537109375
0.17	-0.0	-0.0	-0.0	-4.074814796447754	7.358499050140381	-344.78668212890625	1.695637822151184	-6.133312702178955	-286.37921142578125	-0.0	-0.0	-0.0	-0.0	-0.0	-0.0	81582.6484375	-9974.5849609375	-3836.762451171875
0.1705	-0.0	-0.0	-0.0	-3.639616966247559	7.369198799133301	-345.32574462890625	1.7742156982421875	-6.348928451538086	-287.5870361328125	-0.0	-0.0	-0.0	-0.0	-0.0	-0.0	81397.4296875	-9911.6181640625	-3846.999267578125
0.171	-0.0	-0.0	-0.0	-3.9359734058380127	6.752508163452148	-344.3080444335937	1.4378489255905151	-6.447483062744141	-286.1094055175781	-0.0	-0.0	-0.0	-0.0	-0.0	-0.0	81085.515625	-9827.751953125	-3771.409423828125
